<svg width="48" height="53" viewBox="0 0 48 53" fill="none" xmlns="http://www.w3.org/2000/svg">
<rect width="48" height="52" rx="8" fill="#A365F4"/>
<path fill-rule="evenodd" clip-rule="evenodd" d="M30.4 30.8001V29.2001C30.4 28.7585 30.0416 28.4001 29.6 28.4001C29.1584 28.4001 28.8 28.7585 28.8 29.2001V30.0001C28.8 30.4417 28.4416 30.8001 28 30.8001H27.2C26.7584 30.8001 26.4 31.1585 26.4 31.6001C26.4 32.0417 26.7584 32.4001 27.2 32.4001H28.8C29.684 32.4001 30.4 31.6841 30.4 30.8001ZM28.8 19.6001H27.2C26.7584 19.6001 26.4 19.9585 26.4 20.4001C26.4 20.8417 26.7584 21.2001 27.2 21.2001H28C28.4416 21.2001 28.8 21.5585 28.8 22.0001V22.8001C28.8 23.2417 29.1584 23.6001 29.6 23.6001C30.0416 23.6001 30.4 23.2417 30.4 22.8001V21.2001C30.4 20.3161 29.684 19.6001 28.8 19.6001ZM19.2 32.4001H20.8C21.2416 32.4001 21.6 32.0417 21.6 31.6001C21.6 31.1585 21.2416 30.8001 20.8 30.8001H20C19.5584 30.8001 19.2 30.4417 19.2 30.0001V29.2001C19.2 28.7585 18.8416 28.4001 18.4 28.4001C17.9584 28.4001 17.6 28.7585 17.6 29.2001V30.8001C17.6 31.6841 18.316 32.4001 19.2 32.4001ZM18.4 23.6001C18.8416 23.6001 19.2 23.2417 19.2 22.8001V22.0001C19.2 21.5585 19.5584 21.2001 20 21.2001H20.8C21.2416 21.2001 21.6 20.8417 21.6 20.4001C21.6 19.9585 21.2416 19.6001 20.8 19.6001H19.2C18.316 19.6001 17.6 20.3161 17.6 21.2001V22.8001C17.6 23.2417 17.9584 23.6001 18.4 23.6001ZM16 26.0001C16 25.5585 16.3584 25.2001 16.8 25.2001H31.2C31.6416 25.2001 32 25.5585 32 26.0001C32 26.4417 31.6416 26.8001 31.2 26.8001H16.8C16.3584 26.8001 16 26.4417 16 26.0001Z" fill="white"/>
</svg>
