<svg width="40" height="40" viewBox="0 0 40 40" fill="none" xmlns="http://www.w3.org/2000/svg">
<g clip-path="url(#clip0_2_4511)">
<rect width="40" height="40" rx="16" fill="#3F71B5"/>
<path fill-rule="evenodd" clip-rule="evenodd" d="M24.6667 26.5333C24.6667 27.0485 24.2485 27.4666 23.7333 27.4666H16.2667C15.7515 27.4666 15.3333 27.0485 15.3333 26.5333V14.8666C15.3333 14.609 15.5424 14.4 15.8 14.4H16.2667C16.2667 15.4304 17.102 16.2666 18.1333 16.2666H21.8667C22.898 16.2666 23.7333 15.4304 23.7333 14.4H24.2C24.4576 14.4 24.6667 14.609 24.6667 14.8666V26.5333ZM19.0667 12.5333H20.9333C21.4485 12.5333 21.8667 12.9514 21.8667 13.4666C21.8667 13.9818 21.4485 14.4 20.9333 14.4H19.0667C18.5515 14.4 18.1333 13.9818 18.1333 13.4666C18.1333 12.9514 18.5515 12.5333 19.0667 12.5333ZM24.6667 12.5333H23.7333C23.7333 11.502 22.898 10.6666 21.8667 10.6666H18.1333C17.102 10.6666 16.2667 11.502 16.2667 12.5333H15.3333C14.302 12.5333 13.4667 13.3686 13.4667 14.4V27.4666C13.4667 28.497 14.302 29.3333 15.3333 29.3333H24.6667C25.698 29.3333 26.5333 28.497 26.5333 27.4666V14.4C26.5333 13.3686 25.698 12.5333 24.6667 12.5333Z" fill="#00F0FF"/>
</g>
<defs>
<clipPath id="clip0_2_4511">
<rect width="40" height="40" fill="white"/>
</clipPath>
</defs>
</svg>
