<svg width="75" height="72" viewBox="0 0 75 72" fill="none" xmlns="http://www.w3.org/2000/svg">
<path fill-rule="evenodd" clip-rule="evenodd" d="M44.4 34.2224C44.4 34.643 44.04 35.0475 43.5984 35.0475H42.8V28.8913C42.8 28.0487 42.0808 27.4285 41.196 27.4285H34.8V26.6033C34.8 26.1828 35.1568 25.9047 35.5984 25.9047H43.5984C44.04 25.9047 44.4 26.1828 44.4 26.6033V34.2224ZM41.2 37.3332C41.2 37.7538 40.8416 38.0951 40.4 38.0951H32.4C31.9584 38.0951 31.6 37.7538 31.6 37.3332V29.7142C31.6 29.2929 31.9584 28.9523 32.4 28.9523H40.4C40.8416 28.9523 41.2 29.2929 41.2 29.7142V37.3332ZM44.396 24.3809H34.8016C33.916 24.3809 33.2 25.001 33.2 25.8437V27.4285H31.6016C30.716 27.4285 30 28.0487 30 28.8913V38.0296C30 38.8723 30.716 39.619 31.6016 39.619H41.196C42.0808 39.619 42.8 38.8723 42.8 38.0296V36.5713H44.396C45.2808 36.5713 46 35.8247 46 34.982V25.8437C46 25.001 45.2808 24.3809 44.396 24.3809Z" fill="#A365F4"/>
<circle cx="38" cy="50" r="2" fill="#A365F4"/>
</svg>
