<svg width="24" height="27" viewBox="0 0 24 27" fill="none" xmlns="http://www.w3.org/2000/svg">
<path fill-rule="evenodd" clip-rule="evenodd" d="M18.4 12.2183H15.4304C15.324 12.2183 15.2224 12.2646 15.1472 12.3457L14.0264 13.5693C13.8416 13.7709 13.5312 13.7273 13.3984 13.4812C11.6216 10.1718 11.8776 10.6492 11.5304 10.0016C11.2656 9.5085 10.6448 9.4221 10.2744 9.82617L9.8752 10.2608L9.8816 10.273L8.2152 12.0909C8.14 12.1721 8.0384 12.2183 7.932 12.2183H5.6V6.98195C5.6 6.50021 5.9584 6.10922 6.4 6.10922H17.6C18.0416 6.10922 18.4 6.50021 18.4 6.98195V12.2183ZM18.4 19.2001C18.4 19.6819 18.0416 20.0729 17.6 20.0729H6.4C5.9584 20.0729 5.6 19.6819 5.6 19.2001V13.9638H8.596C8.7024 13.9638 8.804 13.9175 8.8792 13.8364L10.3512 12.2297C10.536 12.0272 10.8464 12.0708 10.9792 12.3178C12.7376 15.5923 12.3872 14.9369 12.8344 15.7773C13.0976 16.2721 13.7192 16.3612 14.0904 15.9571L15.8088 14.0912C15.8832 14.0092 15.9848 13.9638 16.0904 13.9638H18.4V19.2001ZM18.4 4.36377H5.6C4.716 4.36377 4 5.14486 4 6.10922V20.0729C4 21.0364 4.716 21.8183 5.6 21.8183H18.4C19.284 21.8183 20 21.0364 20 20.0729V6.10922C20 5.14486 19.284 4.36377 18.4 4.36377Z" fill="#A365F4"/>
</svg>
