<svg width="32" height="32" viewBox="0 0 32 32" fill="none" xmlns="http://www.w3.org/2000/svg">
<ellipse cx="15.7994" cy="16" rx="15.7994" ry="16" fill="#F7931A"/>
<rect width="31.5987" height="32" rx="10" fill="#F7931A"/>
<path fill-rule="evenodd" clip-rule="evenodd" d="M22.8982 14.0202C23.2079 11.9239 21.6318 10.797 19.4768 10.0453L20.1758 7.20566L18.469 6.77489L17.7884 9.53969C17.3397 9.42646 16.8789 9.31963 16.4209 9.21378L17.1064 6.43077L15.4005 6L14.701 8.83865C14.3296 8.75298 13.965 8.66831 13.6111 8.5792L13.613 8.57034L11.2592 7.97514L10.8051 9.82129C10.8051 9.82129 12.0715 10.1152 12.0448 10.1334C12.736 10.3082 12.861 10.7714 12.8401 11.1387L12.0438 14.3737C12.0914 14.386 12.1532 14.4037 12.2212 14.4313L12.1634 14.4166L12.1632 14.4166C12.1236 14.4065 12.0827 14.3961 12.0409 14.386L10.9247 18.9177C10.8401 19.1303 10.6257 19.4494 10.1425 19.3282C10.1595 19.3534 8.9019 19.0146 8.9019 19.0146L8.05457 20.9932L10.2757 21.554C10.5238 21.6169 10.7689 21.6816 11.0114 21.7457C11.1729 21.7883 11.3332 21.8307 11.4925 21.872L10.7862 24.7441L12.491 25.1749L13.1906 22.3333C13.6563 22.4613 14.1084 22.5794 14.5508 22.6907L13.8537 25.519L15.5605 25.9498L16.2668 23.0831C19.1773 23.6409 21.3659 23.4159 22.2871 20.75C23.0295 18.6036 22.2502 17.3654 20.7189 16.558C21.8341 16.2976 22.6741 15.5547 22.8982 14.0202ZM18.9984 19.5582C18.5145 21.5274 15.4707 20.7133 14.078 20.3408L14.0779 20.3407C13.9526 20.3072 13.8407 20.2773 13.7453 20.2533L14.6825 16.4482C14.7988 16.4776 14.9409 16.5099 15.1019 16.5465C16.5423 16.8738 19.4943 17.5446 18.9984 19.5582ZM15.3913 14.7807C16.5524 15.0945 19.0852 15.779 19.5264 13.9892C19.9769 12.1584 17.5152 11.6066 16.313 11.337C16.1778 11.3067 16.0585 11.28 15.9611 11.2554L15.1113 14.7065C15.1916 14.7267 15.2858 14.7522 15.3913 14.7807Z" fill="white"/>
</svg>
