<svg width="40" height="40" viewBox="0 0 40 40" fill="none" xmlns="http://www.w3.org/2000/svg">
<g clip-path="url(#clip0_2_4502)">
<rect width="40" height="40" rx="16" fill="#3F71B5"/>
<path fill-rule="evenodd" clip-rule="evenodd" d="M20.6667 14C20.6667 13.632 20.368 13.3334 20 13.3334C19.632 13.3334 19.3334 13.632 19.3334 14V26C19.3334 26.368 19.632 26.6667 20 26.6667C20.368 26.6667 20.6667 26.368 20.6667 26V14ZM26 19.3334H24.576C24.2794 19.3334 24.1307 18.9747 24.3407 18.764L25.4614 17.6434C25.722 17.3827 25.722 16.9607 25.4614 16.7007V16.7C25.2007 16.44 24.7787 16.44 24.5187 16.7L22.162 19.0567L22.1607 19.058C21.6407 19.578 21.6407 20.422 22.1607 20.942C22.9427 21.724 23.6027 22.384 24.5187 23.3C24.7787 23.56 25.2007 23.56 25.4614 23.3C25.7214 23.04 25.7214 22.618 25.4614 22.3574L24.3394 21.236C24.1294 21.026 24.278 20.6667 24.5754 20.6667H26C26.368 20.6667 26.6667 20.368 26.6667 20C26.6667 19.632 26.368 19.3334 26 19.3334ZM15.4814 16.7C15.2207 16.44 14.7987 16.44 14.538 16.7007C14.278 16.9607 14.278 17.3827 14.538 17.6434L15.6587 18.764C15.8687 18.9747 15.72 19.3334 15.4234 19.3334H14C13.632 19.3334 13.3334 19.632 13.3334 20C13.3334 20.368 13.632 20.6667 14 20.6667H15.4247C15.7214 20.6667 15.87 21.026 15.66 21.236L14.538 22.3574C14.278 22.618 14.278 23.04 14.538 23.3C14.7987 23.5607 15.2207 23.5607 15.4807 23.3L17.8387 20.942C18.3587 20.422 18.3587 19.578 17.8387 19.058C17.46 18.6794 17.382 18.6014 15.4814 16.7Z" fill="#F7E01A"/>
</g>
<defs>
<clipPath id="clip0_2_4502">
<rect width="40" height="40" fill="white"/>
</clipPath>
</defs>
</svg>
