<svg width="24" height="24" viewBox="0 0 24 24" fill="none" xmlns="http://www.w3.org/2000/svg">
<path fill-rule="evenodd" clip-rule="evenodd" d="M17.25 18.4H6.75054C6.18542 18.4 5.76812 17.8424 5.98127 17.3296C6.97021 14.9584 9.29354 13.6 11.9999 13.6C14.707 13.6 17.0304 14.9584 18.0193 17.3296C18.2325 17.8424 17.8152 18.4 17.25 18.4ZM8.73333 8.79998C8.73333 7.03518 10.1992 5.59998 11.9999 5.59998C13.8014 5.59998 15.2664 7.03518 15.2664 8.79998C15.2664 10.5648 13.8014 12 11.9999 12C10.1992 12 8.73333 10.5648 8.73333 8.79998ZM19.9645 18.1088C19.3708 15.4216 17.5138 13.4384 15.0696 12.5384C16.3648 11.5168 17.1202 9.86478 16.8425 8.05598C16.5208 5.95758 14.7389 4.27838 12.5879 4.03358C9.61857 3.69518 7.10006 5.95918 7.10006 8.79998C7.10006 10.312 7.81543 11.6592 8.93096 12.5384C6.48595 13.4384 4.62973 15.4216 4.03522 18.1088C3.81963 19.0856 4.6232 20 5.64318 20H18.3566C19.3774 20 20.1809 19.0856 19.9645 18.1088Z" fill="white"/>
</svg>
