<svg width="24" height="24" viewBox="0 0 24 24" fill="none" xmlns="http://www.w3.org/2000/svg">
<path fill-rule="evenodd" clip-rule="evenodd" d="M13.8488 18.1318C14.8616 16.4896 15.4504 14.6633 15.6056 12.8026H18.344C18.0264 15.3343 16.2312 17.4104 13.8488 18.1318ZM12.004 18.0045C10.852 16.4456 10.1752 14.6465 9.996 12.8026H14.0048C13.828 14.6457 13.1536 16.4448 12.004 18.0045ZM5.6552 12.8026H8.3944C8.5512 14.6641 9.1432 16.4921 10.1592 18.1342C7.7728 17.4152 5.9736 15.3375 5.6552 12.8026ZM9.8304 5.98332C8.9408 7.61027 8.4592 9.39656 8.3736 11.2013H5.6552C5.9584 8.78485 7.6096 6.78799 9.8304 5.98332ZM11.9736 5.5974C11.9808 5.58779 11.988 5.57819 11.9952 5.56858C12.0024 5.57819 12.0088 5.58779 12.016 5.5974C13.244 7.26999 13.9144 9.22041 14.0256 11.2013H9.9736C10.0824 9.22121 10.7496 7.27159 11.9736 5.5974ZM18.344 11.2013H15.6256C15.5376 9.39495 15.0528 7.60787 14.1592 5.97932C16.3856 6.78239 18.0408 8.78085 18.344 11.2013ZM12.684 4.0297C7.9536 3.62776 4 7.35887 4 12.0019C4 16.3511 7.468 19.8741 11.768 19.9966C16.3096 20.1279 20 16.476 20 12.0019C20 7.87209 16.8544 4.38599 12.684 4.0297Z" fill="white"/>
</svg>
