<svg width="20" height="20" viewBox="0 0 20 20" fill="none" xmlns="http://www.w3.org/2000/svg">
<path fill-rule="evenodd" clip-rule="evenodd" d="M10 11.6667C9.07957 11.6667 8.33337 10.9205 8.33337 10C8.33337 9.07952 9.07957 8.33333 10 8.33333C10.9205 8.33333 11.6667 9.07952 11.6667 10C11.6667 10.9205 10.9205 11.6667 10 11.6667ZM10 17.5C9.07957 17.5 8.33337 16.7538 8.33337 15.8333C8.33337 14.9129 9.07957 14.1667 10 14.1667C10.9205 14.1667 11.6667 14.9129 11.6667 15.8333C11.6667 16.7538 10.9205 17.5 10 17.5ZM10 5.83333C9.07957 5.83333 8.33337 5.08714 8.33337 4.16667C8.33337 3.24619 9.07957 2.5 10 2.5C10.9205 2.5 11.6667 3.24619 11.6667 4.16667C11.6667 5.08714 10.9205 5.83333 10 5.83333Z" fill="white"/>
</svg>
