<svg width="24" height="24" viewBox="0 0 24 24" fill="none" xmlns="http://www.w3.org/2000/svg">
<path fill-rule="evenodd" clip-rule="evenodd" d="M18.4 16.8001V15.2001C18.4 14.7585 18.0416 14.4001 17.6 14.4001C17.1584 14.4001 16.8 14.7585 16.8 15.2001V16.0001C16.8 16.4417 16.4416 16.8001 16 16.8001H15.2C14.7584 16.8001 14.4 17.1585 14.4 17.6001C14.4 18.0417 14.7584 18.4001 15.2 18.4001H16.8C17.684 18.4001 18.4 17.6841 18.4 16.8001ZM16.8 5.6001H15.2C14.7584 5.6001 14.4 5.9585 14.4 6.4001C14.4 6.8417 14.7584 7.2001 15.2 7.2001H16C16.4416 7.2001 16.8 7.5585 16.8 8.0001V8.8001C16.8 9.2417 17.1584 9.6001 17.6 9.6001C18.0416 9.6001 18.4 9.2417 18.4 8.8001V7.2001C18.4 6.3161 17.684 5.6001 16.8 5.6001ZM7.2 18.4001H8.8C9.2416 18.4001 9.6 18.0417 9.6 17.6001C9.6 17.1585 9.2416 16.8001 8.8 16.8001H8C7.5584 16.8001 7.2 16.4417 7.2 16.0001V15.2001C7.2 14.7585 6.8416 14.4001 6.4 14.4001C5.9584 14.4001 5.6 14.7585 5.6 15.2001V16.8001C5.6 17.6841 6.316 18.4001 7.2 18.4001ZM6.4 9.6001C6.8416 9.6001 7.2 9.2417 7.2 8.8001V8.0001C7.2 7.5585 7.5584 7.2001 8 7.2001H8.8C9.2416 7.2001 9.6 6.8417 9.6 6.4001C9.6 5.9585 9.2416 5.6001 8.8 5.6001H7.2C6.316 5.6001 5.6 6.3161 5.6 7.2001V8.8001C5.6 9.2417 5.9584 9.6001 6.4 9.6001ZM4 12.0001C4 11.5585 4.3584 11.2001 4.8 11.2001H19.2C19.6416 11.2001 20 11.5585 20 12.0001C20 12.4417 19.6416 12.8001 19.2 12.8001H4.8C4.3584 12.8001 4 12.4417 4 12.0001Z" fill="white"/>
</svg>
