<svg width="75" height="79" viewBox="0 0 75 79" fill="none" xmlns="http://www.w3.org/2000/svg">
<path fill-rule="evenodd" clip-rule="evenodd" d="M44.4 37.3339C44.4 37.7927 44.04 38.234 43.5984 38.234H42.8V31.5182C42.8 30.5989 42.0808 29.9223 41.196 29.9223H34.8V29.0222C34.8 28.5634 35.1568 28.26 35.5984 28.26H43.5984C44.04 28.26 44.4 28.5634 44.4 29.0222V37.3339ZM41.2 40.7275C41.2 41.1863 40.8416 41.5587 40.4 41.5587H32.4C31.9584 41.5587 31.6 41.1863 31.6 40.7275V32.4158C31.6 31.9562 31.9584 31.5847 32.4 31.5847H40.4C40.8416 31.5847 41.2 31.9562 41.2 32.4158V40.7275ZM44.396 26.5977H34.8016C33.916 26.5977 33.2 27.2742 33.2 28.1935V29.9223H31.6016C30.716 29.9223 30 30.5989 30 31.5182V41.4872C30 42.4065 30.716 43.221 31.6016 43.221H41.196C42.0808 43.221 42.8 42.4065 42.8 41.4872V39.8964H44.396C45.2808 39.8964 46 39.0818 46 38.1625V28.1935C46 27.2742 45.2808 26.5977 44.396 26.5977Z" fill="#A365F4"/>
<ellipse cx="38" cy="54.5456" rx="2" ry="2.18182" fill="#A365F4"/>
</svg>
