<svg width="40" height="40" viewBox="0 0 40 40" fill="none" xmlns="http://www.w3.org/2000/svg">
<g clip-path="url(#clip0_2_4527)">
<rect width="40" height="40" rx="16" fill="#3F71B5"/>
<path fill-rule="evenodd" clip-rule="evenodd" d="M27.4666 24.6666V26.5333C27.4666 27.0485 26.9206 27.4666 26.4054 27.4666H23.7333V23.7333H26.4054C26.9206 23.7333 27.4666 24.1514 27.4666 24.6666ZM21.8666 21.8666V23.7333V27.4666H18.1333V18.1333H20.8054C21.3206 18.1333 21.8666 18.5514 21.8666 19.0666V21.8666ZM16.2666 16.2666V18.1333V27.4666H13.3388C12.8226 27.4666 12.5333 27.0485 12.5333 26.5333V13.4666C12.5333 12.9514 12.8226 12.5333 13.3388 12.5333H15.2054C15.7206 12.5333 16.2666 12.9514 16.2666 13.4666V16.2666ZM23.7333 18.1333C23.7333 17.102 22.7692 16.2666 21.7388 16.2666H18.1333V12.5333C18.1333 11.502 17.1692 10.6666 16.1388 10.6666H12.4054C11.3741 10.6666 10.6666 11.502 10.6666 12.5333V27.4666C10.6666 28.498 11.4385 29.3333 12.4689 29.3333H12.4054H16.1388H18.0054H21.7388H23.6054H27.3388C28.3692 29.3333 29.3333 28.498 29.3333 27.4666V23.7333C29.3333 22.7029 28.498 21.8685 27.4685 21.8676L23.7333 21.8666V18.1333Z" fill="#1AF76A"/>
</g>
<defs>
<clipPath id="clip0_2_4527">
<rect width="40" height="40" fill="white"/>
</clipPath>
</defs>
</svg>
