<svg width="24" height="27" viewBox="0 0 24 27" fill="none" xmlns="http://www.w3.org/2000/svg">
<path fill-rule="evenodd" clip-rule="evenodd" d="M13.8488 19.7803C14.8616 17.9888 15.4504 15.9965 15.6056 13.9666H18.344C18.0264 16.7284 16.2312 18.9933 13.8488 19.7803ZM12.004 19.6414C10.852 17.9408 10.1752 15.9782 9.996 13.9666H14.0048C13.828 15.9773 13.1536 17.9399 12.004 19.6414ZM5.6552 13.9666H8.3944C8.5512 15.9974 9.1432 17.9915 10.1592 19.7829C7.7728 18.9986 5.9736 16.7319 5.6552 13.9666ZM9.8304 6.52739C8.9408 8.30225 8.4592 10.2509 8.3736 12.2197H5.6552C5.9584 9.5836 7.6096 7.40522 9.8304 6.52739ZM11.9736 6.10639C11.9808 6.09591 11.988 6.08543 11.9952 6.07494C12.0024 6.08543 12.0088 6.09591 12.016 6.10639C13.244 7.93103 13.9144 10.0588 14.0256 12.2197H9.9736C10.0824 10.0596 10.7496 7.93278 11.9736 6.10639ZM18.344 12.2197H15.6256C15.5376 10.2492 15.0528 8.29963 14.1592 6.52303C16.3856 7.3991 18.0408 9.57924 18.344 12.2197ZM12.684 4.39617C7.9536 3.95769 4 8.02799 4 13.0931C4 17.8377 7.468 21.6809 11.768 21.8146C16.3096 21.9578 20 17.974 20 13.0931C20 8.58787 16.8544 4.78485 12.684 4.39617Z" fill="#A365F4"/>
</svg>
