<svg width="24" height="27" viewBox="0 0 24 27" fill="none" xmlns="http://www.w3.org/2000/svg">
<path fill-rule="evenodd" clip-rule="evenodd" d="M17.25 20.0728H6.75054C6.18542 20.0728 5.76812 19.4645 5.98127 18.9051C6.97021 16.3184 9.29354 14.8365 11.9999 14.8365C14.707 14.8365 17.0304 16.3184 18.0193 18.9051C18.2325 19.4645 17.8152 20.0728 17.25 20.0728ZM8.73333 9.60011C8.73333 7.67488 10.1992 6.1092 11.9999 6.1092C13.8014 6.1092 15.2664 7.67488 15.2664 9.60011C15.2664 11.5253 13.8014 13.091 11.9999 13.091C10.1992 13.091 8.73333 11.5253 8.73333 9.60011ZM19.9645 19.7552C19.3708 16.8237 17.5138 14.6602 15.0696 13.6784C16.3648 12.5639 17.1202 10.7617 16.8425 8.78848C16.5208 6.49931 14.7389 4.66746 12.5879 4.4004C9.61857 4.03124 7.10006 6.50106 7.10006 9.60011C7.10006 11.2496 7.81543 12.7192 8.93096 13.6784C6.48595 14.6602 4.62973 16.8237 4.03522 19.7552C3.81963 20.8208 4.6232 21.8183 5.64318 21.8183H18.3566C19.3774 21.8183 20.1809 20.8208 19.9645 19.7552Z" fill="#A365F4"/>
</svg>
