<svg width="40" height="40" viewBox="0 0 40 40" fill="none" xmlns="http://www.w3.org/2000/svg">
<g clip-path="url(#clip0_2_4485)">
<rect width="40" height="40" rx="16" fill="#3D1273" fill-opacity="0.4"/>
<path fill-rule="evenodd" clip-rule="evenodd" d="M20 25.3334C17.7106 25.3334 16 24.2774 16 23.3334C16 22.8974 16.368 22.4387 16.986 22.07C17.5166 23.2074 18.6626 24 20 24C21.3373 24 22.4833 23.2074 23.014 22.07C23.632 22.4387 24 22.8974 24 23.3334C24 24.2774 22.2893 25.3334 20 25.3334ZM20 18.6667C21.446 18.6667 22.4693 20.1994 21.778 21.5634C21.448 22.2147 20.7786 22.6667 20 22.6667C19.2213 22.6667 18.552 22.2147 18.222 21.5634C17.5333 20.204 18.5493 18.6667 20 18.6667ZM23.3266 20.7307C23.3273 20.7087 23.3333 20.6887 23.3333 20.6667C23.3333 19.054 22.188 17.7094 20.6666 17.4007V15.8154C21.0633 15.584 21.3333 15.1587 21.3333 14.6667C21.3333 13.93 20.7366 13.3334 20 13.3334C19.2633 13.3334 18.6666 13.93 18.6666 14.6667C18.6666 15.1587 18.9366 15.584 19.3333 15.8154V17.4007C17.812 17.7094 16.6666 19.054 16.6666 20.6667C16.6666 20.6887 16.6726 20.7087 16.6733 20.7307C15.4513 21.3414 14.6666 22.2794 14.6666 23.3334C14.6666 25.174 17.0546 26.6667 20 26.6667C22.9453 26.6667 25.3333 25.174 25.3333 23.3334C25.3333 22.2794 24.5486 21.3414 23.3266 20.7307Z" fill="#F7991A"/>
</g>
<defs>
<clipPath id="clip0_2_4485">
<rect width="40" height="40" fill="white"/>
</clipPath>
</defs>
</svg>
